<svg xmlns="http://www.w3.org/2000/svg" viewBox="0 0 251 261" id="B1hgXweWQ"><style>@-webkit-keyframes r1KMneXPlbX_Animation{0%{opacity: 0;}60.37%{opacity: 0;}78.15%{opacity: 1;}94.07%{opacity: 0;}100%{opacity: 0;}}@keyframes r1KMneXPlbX_Animation{0%{opacity: 0;}60.37%{opacity: 0;}78.15%{opacity: 1;}94.07%{opacity: 0;}100%{opacity: 0;}}@-webkit-keyframes S1_b2x7wxbQ_Animation{0%{opacity: 0;}24.44%{opacity: 0;}50%{opacity: 0.4;}60%{opacity: 1;}87.41%{opacity: 0;}100%{opacity: 0;}}@keyframes S1_b2x7wxbQ_Animation{0%{opacity: 0;}24.44%{opacity: 0;}50%{opacity: 0.4;}60%{opacity: 1;}87.41%{opacity: 0;}100%{opacity: 0;}}@-webkit-keyframes S1Pe3xmveZQ_rJ3N-9WW7_Animation{0%{-webkit-transform: translate(0px, -300px);transform: translate(0px, -300px);}12.59%{-webkit-transform: translate(0px, 0px);transform: translate(0px, 0px);}100%{-webkit-transform: translate(0px, 0px);transform: translate(0px, 0px);}}@keyframes S1Pe3xmveZQ_rJ3N-9WW7_Animation{0%{-webkit-transform: translate(0px, -300px);transform: translate(0px, -300px);}12.59%{-webkit-transform: translate(0px, 0px);transform: translate(0px, 0px);}100%{-webkit-transform: translate(0px, 0px);transform: translate(0px, 0px);}}@-webkit-keyframes S1Pe3xmveZQ_Animation{0%{opacity: 0;}20.74%{opacity: 1;}54.07%{opacity: 0;}100%{opacity: 0;}}@keyframes S1Pe3xmveZQ_Animation{0%{opacity: 0;}20.74%{opacity: 1;}54.07%{opacity: 0;}100%{opacity: 0;}}@-webkit-keyframes r1UnlmweZQ_Animation{0%{opacity: 1;}24.44%{opacity: 0;}93.33%{opacity: 0.8;}100%{opacity: 0.8;}}@keyframes r1UnlmweZQ_Animation{0%{opacity: 1;}24.44%{opacity: 0;}93.33%{opacity: 0.8;}100%{opacity: 0.8;}}@-webkit-keyframes SJSngXvlbX_Animation{0%{opacity: 0.5;}17.41%{opacity: 0;}41.85%{opacity: 0.7;}55.19%{opacity: 0.9;}71.85%{opacity: 1;}85.56%{opacity: 0.7;}100%{opacity: 0.5;}}@keyframes SJSngXvlbX_Animation{0%{opacity: 0.5;}17.41%{opacity: 0;}41.85%{opacity: 0.7;}55.19%{opacity: 0.9;}71.85%{opacity: 1;}85.56%{opacity: 0.7;}100%{opacity: 0.5;}}#B1hgXweWQ *{-webkit-animation-duration: 9s;animation-duration: 9s;-webkit-animation-iteration-count: infinite;animation-iteration-count: infinite;-webkit-animation-timing-function: cubic-bezier(0, 0, 1, 1);animation-timing-function: cubic-bezier(0, 0, 1, 1);}#B1bhgmwe-7{fill: none;stroke: #000;stroke-miterlimit: 10;stroke-width: 16px;}#HJf3xQDl-7{fill: none;stroke: #000;stroke-miterlimit: 10;stroke-width: 8px;}#BkXhxmvxW7{fill: none;stroke: #000;stroke-miterlimit: 10;stroke-width: 8px;}#BJEnxQwlZm{fill: #28bcbe;opacity: 0.2;}#SJSngXvlbX{fill: #fc0;-webkit-animation-name: SJSngXvlbX_Animation;animation-name: SJSngXvlbX_Animation;}#H1wng7Pe-X{fill: #fc0;}#HkOnl7wxWm{fill: #fc0;}#HyYhgXPxZX{fill: #fc0;}#BkqngmwxbX{fill: #fc0;}#B1shxQDlZX{fill: #fc0;}#S12hxQwxZ7{fill: #fc0;}#SJp2lQwl-m{fill: #fc0;}#SJ0nxXvlZ7{fill: #fc0;}#SkJxnlQDeZm{fill: #fc0;}#HJxx2lXDe-7{fill: #fc0;}#HyWxhgQwebX{fill: #fc0;}#H1Mg3lXPgb7{fill: #fc0;}#HkQl3emPlWm{fill: #fc0;}#HyEenlQPgbm{fill: #fc0;}#HyHgneXvx-X{fill: #fc0;}#rkIx3lmwlZ7{fill: #fc0;}#ry_gnx7PxWQ{fill: #fff;}#ByKg3eXvg-X{fill: #fff;}#rkqene7wl-m{fill: #fff;}#HJsxngXwgZX{fill: #fff;}#Hkne3eXPx-X{fill: #fff;}#S1aengQPl-m{fill: #fff;}#B1Re3lXPlbm{fill: #fff;}#Hy1bhgXPl-7{fill: #fff;}#ByxZhl7Dg-Q{fill: #fff;}#ry--2x7Px-Q{fill: #fff;}#HkMbheQDeZQ{fill: #fff;}#B1Qb2lQvlZQ{fill: #fff;}#rkNbhlmwx-X{fill: #fff;}#HkHW2xQDlZQ{fill: #fff;}#BkU-nxQPxbX{fill: #fff;}#SkwZnxmwx-m{fill: #fff;}#r1Fb2gmPxZX{fill: #52c41a;}#rJq-heQvxZX{fill: #52c41a;}#Hysb3lXPg-X{fill: #52c41a;}#B1nZ2e7DgZ7{fill: #52c41a;}#Bya-nl7DlWm{fill: #52c41a;}#HJC-2l7vlbQ{fill: #52c41a;}#rJJG3gXwlbX{fill: #52c41a;}#HJlGhgXvgZQ{fill: #52c41a;}#HkWM3g7DxW7{fill: #52c41a;}#HJMf2gmDgbQ{fill: #52c41a;}#HkXzhgXvxbX{fill: #52c41a;}#SJEz3gQveZQ{fill: #52c41a;}#rJHG2x7wgZX{fill: #52c41a;}#HJIG2lXPx-m{fill: #52c41a;}#HJwG3xQPe-Q{fill: #52c41a;}#HkOfnlmwgZQ{fill: #52c41a;}#Bk5f3lQwx-m{fill: #f5222d;}#rkjf2lQPeZX{fill: #f5222d;}#BknMneQwxZQ{fill: #f5222d;}#S1TzhxQwgWX{fill: #f5222d;}#rJRzngXPgZ7{fill: #f5222d;}#H11Xng7wgb7{fill: #f5222d;}#r1UnlmweZQ{-webkit-animation-name: r1UnlmweZQ_Animation;animation-name: r1UnlmweZQ_Animation;}#S1Pe3xmveZQ{-webkit-animation-name: S1Pe3xmveZQ_Animation;animation-name: S1Pe3xmveZQ_Animation;}#S1Pe3xmveZQ_rJ3N-9WW7{-webkit-animation-name: S1Pe3xmveZQ_rJ3N-9WW7_Animation;animation-name: S1Pe3xmveZQ_rJ3N-9WW7_Animation;-webkit-transform-origin: 50% 50%;transform-origin: 50% 50%;transform-box: fill-box;}#S1_b2x7wxbQ{-webkit-animation-name: S1_b2x7wxbQ_Animation;animation-name: S1_b2x7wxbQ_Animation;}#r1KMneXPlbX{-webkit-animation-name: r1KMneXPlbX_Animation;animation-name: r1KMneXPlbX_Animation;}</style><defs/><title>small tree</title><g id="BygheXDgWX" data-name="Layer 1"><line x1="100" y1="97" x2="100" y2="261" id="B1bhgmwe-7"/><line x1="48" y1="121" x2="100" y2="182" id="HJf3xQDl-7"/><line x1="147" y1="117" x2="100" y2="172" id="BkXhxmvxW7"/><ellipse cx="156" cy="89" rx="95" ry="89" id="BJEnxQwlZm"/><ellipse cx="222" cy="34" rx="27" ry="27" id="SJSngXvlbX"/></g><g id="r1UnlmweZQ"><ellipse cx="126" cy="85" rx="11" ry="11" id="H1wng7Pe-X"/><ellipse cx="18" cy="126" rx="11" ry="11" id="HkOnl7wxWm"/><ellipse cx="178" cy="125" rx="11" ry="11" id="HyYhgXPxZX"/><ellipse cx="98" cy="44" rx="11" ry="11" id="BkqngmwxbX"/><ellipse cx="181" cy="90" rx="11" ry="11" id="B1shxQDlZX"/><ellipse cx="122" cy="59" rx="11" ry="11" id="S12hxQwxZ7"/><ellipse cx="55" cy="85" rx="11" ry="11" id="SJp2lQwl-m"/><ellipse cx="77" cy="104" rx="11" ry="11" id="SJ0nxXvlZ7"/><ellipse cx="26" cy="74" rx="11" ry="11" id="SkJxnlQDeZm"/><ellipse cx="11" cy="100" rx="11" ry="11" id="HJxx2lXDe-7"/><ellipse cx="153" cy="68" rx="11" ry="11" id="HyWxhgQwebX"/><ellipse cx="70" cy="58" rx="11" ry="11" id="H1Mg3lXPgb7"/><ellipse cx="119" cy="116" rx="11" ry="11" id="HkQl3emPlWm"/><ellipse cx="153" cy="105" rx="11" ry="11" id="HyEenlQPgbm"/><ellipse cx="98" cy="80" rx="11" ry="11" id="HyHgneXvx-X"/><ellipse cx="43" cy="114" rx="11" ry="11" id="rkIx3lmwlZ7"/></g><g id="S1Pe3xmveZQ_rJ3N-9WW7" data-animator-group="true" data-animator-type="0"><g id="S1Pe3xmveZQ"><ellipse cx="126" cy="85" rx="11" ry="10" id="ry_gnx7PxWQ"/><ellipse cx="24" cy="124" rx="11" ry="10" id="ByKg3eXvg-X"/><ellipse cx="174" cy="122" rx="11" ry="10" id="rkqene7wl-m"/><ellipse cx="99" cy="48" rx="11" ry="10" id="HJsxngXwgZX"/><ellipse cx="177" cy="90" rx="11" ry="10" id="Hkne3eXPx-X"/><ellipse cx="122" cy="61" rx="11" ry="10" id="S1aengQPl-m"/><ellipse cx="58" cy="85" rx="11" ry="10" id="B1Re3lXPlbm"/><ellipse cx="80" cy="102" rx="11" ry="10" id="Hy1bhgXPl-7"/><ellipse cx="31" cy="75" rx="11" ry="10" id="ByxZhl7Dg-Q"/><ellipse cx="18" cy="100" rx="11" ry="10" id="ry--2x7Px-Q"/><ellipse cx="151" cy="70" rx="11" ry="10" id="HkMbheQDeZQ"/><ellipse cx="73" cy="60" rx="11" ry="10" id="B1Qb2lQvlZQ"/><ellipse cx="118" cy="114" rx="11" ry="10" id="rkNbhlmwx-X"/><ellipse cx="151" cy="104" rx="11" ry="10" id="HkHW2xQDlZQ"/><ellipse cx="99" cy="81" rx="11" ry="10" id="BkU-nxQPxbX"/><ellipse cx="48" cy="112" rx="11" ry="10" id="SkwZnxmwx-m"/></g></g><g id="S1_b2x7wxbQ"><ellipse cx="126" cy="86" rx="11" ry="11" id="r1Fb2gmPxZX"/><ellipse cx="18" cy="127" rx="11" ry="11" id="rJq-heQvxZX"/><ellipse cx="178" cy="125" rx="11" ry="11" id="Hysb3lXPg-X"/><ellipse cx="98" cy="45" rx="11" ry="11" id="B1nZ2e7DgZ7"/><ellipse cx="181" cy="90" rx="11" ry="11" id="Bya-nl7DlWm"/><ellipse cx="122" cy="60" rx="11" ry="11" id="HJC-2l7vlbQ"/><ellipse cx="55" cy="86" rx="11" ry="11" id="rJJG3gXwlbX"/><ellipse cx="77" cy="104" rx="11" ry="11" id="HJlGhgXvgZQ"/><ellipse cx="26" cy="75" rx="11" ry="11" id="HkWM3g7DxW7"/><ellipse cx="11" cy="101" rx="11" ry="11" id="HJMf2gmDgbQ"/><ellipse cx="153" cy="69" rx="11" ry="11" id="HkXzhgXvxbX"/><ellipse cx="70" cy="58" rx="11" ry="11" id="SJEz3gQveZQ"/><ellipse cx="119" cy="116" rx="11" ry="11" id="rJHG2x7wgZX"/><ellipse cx="153" cy="106" rx="11" ry="11" id="HJIG2lXPx-m"/><ellipse cx="98" cy="81" rx="11" ry="11" id="HJwG3xQPe-Q"/><ellipse cx="43" cy="115" rx="11" ry="11" id="HkOfnlmwgZQ"/></g><g id="r1KMneXPlbX"><circle cx="55" cy="86" r="11" id="Bk5f3lQwx-m"/><circle cx="119" cy="117" r="11" id="rkjf2lQPeZX"/><circle cx="153" cy="69" r="11" id="BknMneQwxZQ"/><circle cx="18" cy="128" r="11" id="S1TzhxQwgWX"/><circle cx="98" cy="81" r="11" id="rJRzngXPgZ7"/><circle cx="178" cy="127" r="11" id="H11Xng7wgb7"/></g><script>(function(){var a=document.querySelector('#B1hgXweWQ'),b=a.querySelectorAll('style'),c=function(d){b.forEach(function(f){var g=f.textContent;g&amp;&amp;(f.textContent=g.replace(/transform-box:[^;\r\n]*/gi,'transform-box: '+d))})};c('initial'),window.requestAnimationFrame(function(){return c('fill-box')})})();</script></svg>