<svg xmlns="http://www.w3.org/2000/svg" viewBox="0 0 235 195" id="el_9AEGzUlIG"><style>@-webkit-keyframes el_t6qddCg5q8s_Animation{0%{opacity: 0;}76.67%{opacity: 0;}79.05%{opacity: 0.25;}81.43%{opacity: 0.5;}83.81%{opacity: 0.75;}87.14%{opacity: 1;}100%{opacity: 1;}}@keyframes el_t6qddCg5q8s_Animation{0%{opacity: 0;}76.67%{opacity: 0;}79.05%{opacity: 0.25;}81.43%{opacity: 0.5;}83.81%{opacity: 0.75;}87.14%{opacity: 1;}100%{opacity: 1;}}@-webkit-keyframes el_KEG_kbm_I1_Animation{0%{opacity: 0;}53.33%{opacity: 0;}55.71%{opacity: 1;}100%{opacity: 1;}}@keyframes el_KEG_kbm_I1_Animation{0%{opacity: 0;}53.33%{opacity: 0;}55.71%{opacity: 1;}100%{opacity: 1;}}@-webkit-keyframes el_dNrILvh6Mm_Animation{0%{opacity: 0;}45.71%{opacity: 0;}47.62%{opacity: 1;}100%{opacity: 1;}}@keyframes el_dNrILvh6Mm_Animation{0%{opacity: 0;}45.71%{opacity: 0;}47.62%{opacity: 1;}100%{opacity: 1;}}@-webkit-keyframes el_Gxv_1EaNsv_Animation{33.33%{opacity: 0;}35.71%{opacity: 1;}0%{opacity: 0;}100%{opacity: 1;}}@keyframes el_Gxv_1EaNsv_Animation{33.33%{opacity: 0;}35.71%{opacity: 1;}0%{opacity: 0;}100%{opacity: 1;}}@-webkit-keyframes el_RghDYEkQDy_1Phs-12S7_Animation{0%{-webkit-transform: translate(0px, -300px);transform: translate(0px, -300px);}21.43%{-webkit-transform: translate(0px, 0px);transform: translate(0px, 0px);}100%{-webkit-transform: translate(0px, 0px);transform: translate(0px, 0px);}}@keyframes el_RghDYEkQDy_1Phs-12S7_Animation{0%{-webkit-transform: translate(0px, -300px);transform: translate(0px, -300px);}21.43%{-webkit-transform: translate(0px, 0px);transform: translate(0px, 0px);}100%{-webkit-transform: translate(0px, 0px);transform: translate(0px, 0px);}}@-webkit-keyframes el_J0igwj6Y6v_Fwhh5XPWk_Animation{0%{-webkit-transform: translate(0px, 0px);transform: translate(0px, 0px);}100%{-webkit-transform: translate(0px, 0px);transform: translate(0px, 0px);}}@keyframes el_J0igwj6Y6v_Fwhh5XPWk_Animation{0%{-webkit-transform: translate(0px, 0px);transform: translate(0px, 0px);}100%{-webkit-transform: translate(0px, 0px);transform: translate(0px, 0px);}}#el_9AEGzUlIG *{-webkit-animation-duration: 7s;animation-duration: 7s;-webkit-animation-iteration-count: infinite;animation-iteration-count: infinite;-webkit-animation-timing-function: cubic-bezier(0, 0, 1, 1);animation-timing-function: cubic-bezier(0, 0, 1, 1);}#el_d78iNhoiCq{fill: #e7d04b;}#el_6VE3odY6jf{fill: #25bcbd;}#el_u0HLdJfSXQ{fill: #f5222d;}#el_3Z5iPOxnWm{fill: #f5222d;}#el_5FPqB04GDA{fill: #37b34a;-webkit-transform: translate(-10px, -12.16px);transform: translate(-10px, -12.16px);}#el_oot3MGi2JA{fill: none;stroke: #231f20;stroke-miterlimit: 10;stroke-width: 7px;}#el_24v8H_1hhH{fill: #fff;-webkit-transform: translate(-10px, -12.16px);transform: translate(-10px, -12.16px);}#el_bDNcQT8Hw3{fill: #fff;-webkit-transform: translate(-10px, -12.16px);transform: translate(-10px, -12.16px);}#el_OFC8WAmS6X{fill: #c3996b;-webkit-transform: translate(-10px, -12.16px);transform: translate(-10px, -12.16px);}#el_13WNfz2xc8H{fill: #231f20;-webkit-transform: translate(-10px, -12.16px);transform: translate(-10px, -12.16px);}#el_B3vKBfPeB4N{fill: #c3996b;-webkit-transform: translate(-10px, -12.16px);transform: translate(-10px, -12.16px);}#el_pDjw9RolzqX{fill: #231f20;-webkit-transform: translate(-10px, -12.16px);transform: translate(-10px, -12.16px);}#el_mK5Ye3fMD8G{fill: #f5222d;}#el_eqL6t3rVnJH{fill: #37b34a;-webkit-transform: translate(-10px, -12.16px);transform: translate(-10px, -12.16px);}#el_ZGylTyC9Pvl{fill: none;stroke: #231f20;stroke-miterlimit: 10;stroke-width: 7px;}#el_J0igwj6Y6v_Fwhh5XPWk{-webkit-animation-name: el_J0igwj6Y6v_Fwhh5XPWk_Animation;animation-name: el_J0igwj6Y6v_Fwhh5XPWk_Animation;-webkit-transform-origin: 50% 50%;transform-origin: 50% 50%;transform-box: fill-box;-webkit-transform: translate(0px, 0px);transform: translate(0px, 0px);}#el_RghDYEkQDy_1Phs-12S7{-webkit-animation-name: el_RghDYEkQDy_1Phs-12S7_Animation;animation-name: el_RghDYEkQDy_1Phs-12S7_Animation;-webkit-transform-origin: 50% 50%;transform-origin: 50% 50%;transform-box: fill-box;-webkit-transform: translate(0px, -300px);transform: translate(0px, -300px);}#el_Gxv_1EaNsv{-webkit-animation-name: el_Gxv_1EaNsv_Animation;animation-name: el_Gxv_1EaNsv_Animation;opacity: 0;}#el_dNrILvh6Mm{-webkit-animation-name: el_dNrILvh6Mm_Animation;animation-name: el_dNrILvh6Mm_Animation;opacity: 0;}#el_KEG_kbm_I1{-webkit-animation-name: el_KEG_kbm_I1_Animation;animation-name: el_KEG_kbm_I1_Animation;opacity: 0;}#el_t6qddCg5q8s{-webkit-animation-name: el_t6qddCg5q8s_Animation;animation-name: el_t6qddCg5q8s_Animation;opacity: 0;}</style><defs/><title>new apple</title><g id="el_J0igwj6Y6v_Fwhh5XPWk" data-animator-group="true" data-animator-type="0"><g id="el_J0igwj6Y6v"><polygon points="114.1 65.61 40.48 65.95 58.45 34.88 95.43 34.54 114.1 65.61" id="el_d78iNhoiCq"/><polygon points="37.44 71.23 0 136.93 155 136.99 116.26 70.71 37.44 71.23" id="el_6VE3odY6jf"/><polygon points="78.33 0 95 28.84 59.23 29.31 78.33 0" id="el_u0HLdJfSXQ"/><rect x="64" y="136.84" width="27" height="27" id="el_nqesHYhCnH"/></g></g><g id="el_RghDYEkQDy_1Phs-12S7" data-animator-group="true" data-animator-type="0"><g id="el_RghDYEkQDy" data-name="apple 1"><ellipse cx="174.5" cy="146.84" rx="52.5" ry="49" id="el_3Z5iPOxnWm"/><path d="M212.22,115.1c0,7.21-6.25,13.05-14,13.05s-13.95-5.84-13.95-13.05S190.56,102,198.26,102s14,5.85,14,13.06" id="el_5FPqB04GDA"/><line x1="173.86" y1="85.27" x2="173.86" y2="109.61" id="el_oot3MGi2JA"/></g></g><g id="el_Gxv_1EaNsv" data-name="Ellipse 1"><path d="M200,159.82A32,32,0,1,1,168,128a31.91,31.91,0,0,1,32,31.82" id="el_24v8H_1hhH"/></g><g id="el_dNrILvh6Mm" data-name="Ellipse 2"><path d="M245.21,159.67c0,17.66-15.74,32-35.15,32s-35.16-14.31-35.16-32,15.74-32,35.16-32,35.15,14.31,35.15,32" id="el_bDNcQT8Hw3"/></g><g id="el_KEG_kbm_I1"><path d="M184.46,162.22a6.65,6.65,0,1,1-6.64-6.21,6.44,6.44,0,0,1,6.64,6.21" id="el_OFC8WAmS6X"/><path d="M180.53,162.22a2.72,2.72,0,1,1-2.71-2.54,2.62,2.62,0,0,1,2.71,2.54" id="el_13WNfz2xc8H"/><path d="M200.24,162.22A6.65,6.65,0,1,1,193.6,156a6.44,6.44,0,0,1,6.64,6.21" id="el_B3vKBfPeB4N"/><path d="M196.31,162.22a2.72,2.72,0,1,1-2.71-2.54,2.62,2.62,0,0,1,2.71,2.54" id="el_pDjw9RolzqX"/></g><g id="el_t6qddCg5q8s" data-name="Apple 2"><ellipse cx="174.5" cy="146.84" rx="52.5" ry="49" id="el_mK5Ye3fMD8G"/><path d="M212.22,115.1c0,7.21-6.25,13.05-14,13.05s-13.95-5.84-13.95-13.05S190.56,102,198.26,102s14,5.85,14,13.06" id="el_eqL6t3rVnJH"/><line x1="173.86" y1="85.27" x2="173.86" y2="109.61" id="el_ZGylTyC9Pvl"/></g><script>(function(){var a=document.querySelector('#el_9AEGzUlIG'),b=a.querySelectorAll('style'),c=function(d){b.forEach(function(f){var g=f.textContent;g&amp;&amp;(f.textContent=g.replace(/transform-box:[^;\r\n]*/gi,'transform-box: '+d))})};c('initial'),window.requestAnimationFrame(function(){return c('fill-box')})})();</script></svg>