<?xml version="1.0" standalone="no"?>
<!DOCTYPE svg PUBLIC "-//W3C//DTD SVG 20010904//EN"
 "http://www.w3.org/TR/2001/REC-SVG-20010904/DTD/svg10.dtd">
<svg version="1.0" xmlns="http://www.w3.org/2000/svg"
 width="500.000000pt" height="500.000000pt" viewBox="0 0 500.000000 500.000000"
 preserveAspectRatio="xMidYMid meet">
<metadata>
Created by potrace 1.11, written by Peter Selinger 2001-2013
</metadata>
<g transform="translate(0.000000,500.000000) scale(0.100000,-0.100000)"
fill="#000000" stroke="none">
<path d="M1450 4870 c-25 -4 -63 -11 -85 -15 -35 -5 -107 -34 -170 -68 -11 -6
-33 -17 -50 -26 -48 -24 -132 -89 -152 -117 -10 -14 -48 -56 -84 -93 -36 -37
-74 -81 -84 -99 -11 -18 -23 -32 -27 -32 -4 0 -8 -6 -8 -13 0 -7 -10 -33 -21
-58 -30 -61 -38 -240 -16 -359 9 -47 18 -101 20 -120 7 -60 63 -208 99 -262
10 -14 18 -31 18 -37 0 -7 18 -31 40 -53 22 -23 40 -45 40 -49 0 -4 23 -29 50
-55 28 -26 50 -53 50 -60 0 -7 9 -15 19 -19 11 -3 23 -16 27 -28 9 -32 33 -56
73 -74 20 -9 65 -37 101 -62 101 -72 117 -81 145 -81 14 0 34 -9 44 -19 16
-16 32 -19 100 -17 75 1 82 3 109 31 45 46 75 121 69 172 -5 47 -30 83 -57 83
-9 0 -27 9 -40 20 -13 11 -41 25 -63 32 -23 7 -50 25 -66 45 -14 18 -30 33
-36 33 -19 0 -122 122 -135 159 -14 44 -1 81 28 81 10 0 23 5 29 11 6 6 28 9
49 7 33 -3 42 -8 56 -38 22 -44 195 -219 226 -226 12 -4 33 -3 46 0 21 5 26
14 32 54 3 26 10 52 14 57 20 28 33 380 19 535 -49 540 -57 590 -112 661 -17
23 -49 56 -69 72 -33 26 -46 30 -110 33 -40 1 -93 -1 -118 -6z m-100 -485 c7
-8 10 -25 8 -38 -3 -13 4 -75 15 -138 33 -199 33 -214 1 -244 -51 -47 -134
-25 -134 36 0 9 -9 28 -20 42 -13 16 -20 40 -20 66 0 22 -5 63 -11 91 -9 44
-8 56 9 94 38 81 120 130 152 91z"/>
<path d="M2580 4873 c-67 -11 -119 -36 -159 -76 -47 -47 -127 -158 -164 -227
-30 -55 -67 -210 -74 -305 -2 -38 -9 -84 -14 -102 -6 -19 -8 -100 -4 -200 7
-192 30 -316 75 -409 17 -34 30 -65 30 -69 0 -4 18 -27 40 -52 22 -25 40 -49
40 -53 0 -9 116 -105 163 -134 45 -29 125 -40 292 -41 l150 0 70 38 c159 87
286 206 348 327 58 112 64 163 60 499 -3 277 -4 295 -24 322 -22 32 -59 38
-79 14 -7 -8 -49 -37 -94 -65 -66 -41 -89 -61 -122 -112 -41 -62 -41 -64 -43
-158 -1 -129 -9 -160 -50 -187 -66 -44 -188 -23 -161 27 6 10 10 26 10 35 0
10 51 121 114 249 193 391 198 409 151 513 -35 80 -105 149 -165 162 -43 10
-337 13 -390 4z"/>
<path d="M4217 3765 c-177 -31 -238 -64 -401 -220 -29 -27 -84 -79 -124 -114
-40 -34 -72 -67 -72 -73 0 -5 -20 -34 -45 -65 -25 -30 -45 -58 -45 -63 0 -4
-14 -25 -31 -46 -34 -43 -93 -154 -103 -196 -3 -15 -13 -33 -21 -42 -8 -8 -15
-20 -15 -26 0 -6 -11 -37 -25 -70 -29 -69 -31 -111 -9 -211 19 -86 43 -117
119 -154 68 -34 268 -76 430 -91 28 -3 115 -12 194 -20 160 -18 222 -15 252
12 30 27 109 151 125 197 40 111 87 377 78 440 -2 12 -6 39 -9 60 l-6 38 -77
-2 c-138 -3 -195 -49 -212 -170 -5 -34 -16 -69 -24 -77 -21 -21 -170 -30 -192
-11 -18 15 -12 64 13 112 19 38 225 268 255 286 28 17 126 93 181 141 57 50
67 80 57 172 -14 124 -20 144 -51 174 -26 25 -38 29 -97 30 -37 2 -102 -4
-145 -11z"/>
<path d="M305 3435 c-96 -27 -93 -23 -155 -205 -67 -199 -74 -276 -40 -500 64
-438 134 -665 248 -805 l48 -60 147 2 c177 3 247 18 376 80 108 52 132 76 256
258 l69 100 4 107 c4 114 -6 166 -54 258 -41 78 -153 170 -208 170 -15 0 -50
-26 -99 -73 -64 -61 -77 -79 -83 -114 -5 -33 -2 -50 15 -78 11 -20 21 -42 21
-50 0 -7 4 -15 10 -17 6 -2 6 -16 -1 -40 -19 -70 -139 -113 -198 -72 -50 35
-98 130 -126 247 -35 147 -38 163 -39 225 -1 42 3 57 18 68 33 24 28 27 143
-101 l43 -47 32 21 c18 12 53 33 78 47 25 13 58 43 73 65 26 36 28 42 16 77
-34 103 -99 208 -191 303 -96 100 -128 119 -203 119 -16 0 -46 4 -65 9 -64 16
-95 18 -135 6z"/>
<path d="M2180 2570 c-25 -5 -80 -9 -122 -9 -83 -1 -118 -11 -238 -69 -94 -46
-137 -80 -193 -151 -62 -79 -157 -277 -157 -328 0 -8 -9 -28 -20 -43 -11 -16
-27 -48 -36 -72 -8 -24 -26 -65 -39 -92 -14 -28 -25 -55 -25 -62 0 -12 -53
-109 -87 -162 -10 -15 -22 -35 -28 -44 -9 -16 -30 -46 -95 -143 -15 -22 -34
-56 -42 -75 -9 -19 -31 -69 -51 -110 -48 -101 -72 -246 -63 -382 6 -103 26
-177 70 -263 14 -27 26 -54 26 -60 0 -5 37 -48 83 -94 74 -75 92 -87 163 -113
112 -42 196 -57 378 -67 128 -7 163 -6 185 5 14 8 30 14 34 14 4 0 29 9 54 21
25 11 53 22 62 24 9 2 39 15 66 30 48 27 110 48 190 65 22 5 63 16 90 25 28 9
64 20 80 25 63 20 197 23 268 6 38 -9 86 -16 109 -16 55 0 292 -82 318 -110 3
-3 34 -14 70 -25 36 -10 85 -27 109 -38 66 -29 219 -15 316 28 17 7 50 18 75
23 96 23 135 48 192 125 80 107 134 205 147 265 14 67 14 162 0 198 -5 16 -21
71 -35 124 -14 52 -45 137 -70 188 -36 78 -56 104 -121 167 -43 41 -87 78 -97
81 -11 4 -29 15 -40 26 -12 11 -46 37 -77 58 -31 22 -67 52 -80 67 -14 15 -65
63 -114 105 -148 128 -181 166 -287 333 -98 156 -119 183 -253 331 -78 85
-178 145 -288 173 -88 23 -352 36 -427 21z"/>
</g>
</svg>
